<svg preserveAspectRatio="none" overflow="visible" style="display: block;" width="32" height="32" viewBox="0 0 32 32" fill="none" xmlns="http://www.w3.org/2000/svg">
<g id="vuesax/linear/money-3">
<path id="Vector" d="M22.6667 27.3333H9.33333C5.33333 27.3333 2.66667 25.3333 2.66667 20.6667V11.3333C2.66667 6.66667 5.33333 4.66667 9.33333 4.66667H22.6667C26.6667 4.66667 29.3333 6.66667 29.3333 11.3333V20.6667C29.3333 25.3333 26.6667 27.3333 22.6667 27.3333Z" stroke="#0058DA" stroke-width="1.5" stroke-miterlimit="10" stroke-linecap="round" stroke-linejoin="round"/>
<path id="Vector_2" d="M16 20C18.2091 20 20 18.2091 20 16C20 13.7909 18.2091 12 16 12C13.7909 12 12 13.7909 12 16C12 18.2091 13.7909 20 16 20Z" stroke="#0058DA" stroke-width="1.5" stroke-miterlimit="10" stroke-linecap="round" stroke-linejoin="round"/>
<path id="Vector_3" d="M25.3333 9.33333H21.3333" stroke="#0058DA" stroke-width="1.5" stroke-miterlimit="10" stroke-linecap="round" stroke-linejoin="round"/>
<path id="Vector_4" d="M10.6667 22.6667H6.66667" stroke="#0058DA" stroke-width="1.5" stroke-miterlimit="10" stroke-linecap="round" stroke-linejoin="round"/>
<g id="Vector_5" opacity="0">
</g>
</g>
</svg>
