<svg preserveAspectRatio="none" overflow="visible" style="display: block;" width="24" height="24" viewBox="0 0 24 24" fill="none" xmlns="http://www.w3.org/2000/svg">
<g id="codicon:link-external">
<path id="Vector" d="M22.5 14.25V18.75C22.5 20.8185 20.8185 22.5 18.75 22.5H5.25C4.25544 22.5 3.30161 22.1049 2.59835 21.4017C1.89509 20.6984 1.5 19.7446 1.5 18.75V5.25C1.5 3.1815 3.1815 1.5 5.25 1.5H9.75C9.94891 1.5 10.1397 1.57902 10.2803 1.71967C10.421 1.86032 10.5 2.05109 10.5 2.25C10.5 2.44891 10.421 2.63968 10.2803 2.78033C10.1397 2.92098 9.94891 3 9.75 3H5.25C4.0095 3 3 4.0095 3 5.25V18.75C3 19.9905 4.0095 21 5.25 21H18.75C19.9905 21 21 19.9905 21 18.75V14.25C21 14.0511 21.079 13.8603 21.2197 13.7197C21.3603 13.579 21.5511 13.5 21.75 13.5C21.9489 13.5 22.1397 13.579 22.2803 13.7197C22.421 13.8603 22.5 14.0511 22.5 14.25ZM21.75 1.5H14.25C14.0511 1.5 13.8603 1.57902 13.7197 1.71967C13.579 1.86032 13.5 2.05109 13.5 2.25C13.5 2.44891 13.579 2.63968 13.7197 2.78033C13.8603 2.92098 14.0511 3 14.25 3H19.9395L13.7205 9.219C13.5799 9.35983 13.5009 9.55076 13.5011 9.74978C13.5012 9.9488 13.5804 10.1396 13.7213 10.2802C13.8621 10.4209 14.053 10.4998 14.252 10.4997C14.4511 10.4995 14.6419 10.4203 14.7825 10.2795L21.0015 4.0605V9.75C21.0015 9.94891 21.0805 10.1397 21.2212 10.2803C21.3618 10.421 21.5526 10.5 21.7515 10.5C21.9504 10.5 22.1412 10.421 22.2818 10.2803C22.4225 10.1397 22.5015 9.94891 22.5015 9.75V2.25C22.5015 2.05109 22.4225 1.86032 22.2818 1.71967C22.1412 1.57902 21.9504 1.5 21.7515 1.5H21.75Z" fill="#0D6EFD"/>
</g>
</svg>
