<svg preserveAspectRatio="none" overflow="visible" style="display: block;" width="24" height="24" viewBox="0 0 24 24" fill="none" xmlns="http://www.w3.org/2000/svg">
<g id="material-symbols-light:activity-zone">
<path id="Vector" d="M5.77 20.23C5.218 20.23 4.74667 20.0347 4.356 19.644C3.96533 19.2533 3.76967 18.7823 3.769 18.231C3.769 17.7603 3.91167 17.3477 4.197 16.993C4.48233 16.639 4.83967 16.405 5.269 16.291V7.71C4.83967 7.596 4.48233 7.36167 4.197 7.007C3.91167 6.65233 3.769 6.23967 3.769 5.769C3.769 5.21767 3.96467 4.74667 4.356 4.356C4.74733 3.96533 5.21833 3.76967 5.769 3.769C6.23967 3.769 6.65233 3.91167 7.007 4.197C7.361 4.48233 7.595 4.83967 7.709 5.269H16.291C16.401 4.83967 16.6333 4.48233 16.988 4.197C17.3427 3.91167 17.757 3.769 18.231 3.769C18.7823 3.769 19.2533 3.96467 19.644 4.356C20.0347 4.74733 20.2303 5.21833 20.231 5.769C20.231 6.24367 20.0883 6.65833 19.803 7.013C19.5177 7.367 19.1603 7.59933 18.731 7.71V16.29C19.1603 16.4047 19.5177 16.639 19.803 16.993C20.0883 17.3477 20.231 17.7603 20.231 18.231C20.231 18.7823 20.0353 19.2533 19.644 19.644C19.2527 20.0347 18.7817 20.2303 18.231 20.231C17.7603 20.231 17.3477 20.0883 16.993 19.803C16.639 19.5177 16.405 19.1603 16.291 18.731H7.71C7.596 19.1603 7.36167 19.5177 7.007 19.803C6.65233 20.0883 6.23967 20.231 5.769 20.231M7.709 17.731H16.291C16.3897 17.3743 16.565 17.0697 16.817 16.817C17.0703 16.565 17.375 16.3897 17.731 16.291V7.71C17.3743 7.62333 17.0667 7.45067 16.808 7.192C16.5493 6.93333 16.3767 6.62567 16.29 6.269H7.71C7.61133 6.62567 7.43567 6.93033 7.183 7.183C6.92967 7.435 6.625 7.61033 6.269 7.709V16.291C6.62567 16.3897 6.93033 16.565 7.183 16.817C7.43567 17.0703 7.61033 17.375 7.709 17.731Z" fill="#0D6EFD"/>
</g>
</svg>
